<?xml version="1.0" encoding="UTF-8"?> <svg xmlns="http://www.w3.org/2000/svg" xmlns:xlink="http://www.w3.org/1999/xlink" xmlns:xodm="http://www.corel.com/coreldraw/odm/2003" xml:space="preserve" width="545px" height="260px" version="1.1" style="shape-rendering:geometricPrecision; text-rendering:geometricPrecision; image-rendering:optimizeQuality; fill-rule:evenodd; clip-rule:evenodd" viewBox="0 0 440.53 210.11"> <defs> <style type="text/css"> .fil0 {fill:#378FFD} </style> </defs> <g id="Слой_x0020_1"> <metadata id="CorelCorpID_0Corel-Layer"></metadata> <path class="fil0" d="M80.19 0l351.17 0c5.05,0 9.17,4.13 9.17,9.18l0 191.75c0,5.05 -4.12,9.18 -9.17,9.18l-422.18 0c-5.06,0 -9.18,-4.13 -9.18,-9.18l0 -165.32c0,-5.05 4.12,-9.17 9.18,-9.17l0 0c0.21,0 53.08,-0.01 53.28,-0.02 4.5,-0.3 8.13,-3.88 8.52,-8.36 0.02,-0.26 0.03,-8.61 0.03,-8.88l0 0c0,-5.06 4.13,-9.18 9.18,-9.18z"></path> </g> </svg> 