<?xml version="1.0" encoding="UTF-8"?> <svg xmlns="http://www.w3.org/2000/svg" xmlns:xlink="http://www.w3.org/1999/xlink" xmlns:xodm="http://www.corel.com/coreldraw/odm/2003" xml:space="preserve" width="562px" height="159px" version="1.1" style="shape-rendering:geometricPrecision; text-rendering:geometricPrecision; image-rendering:optimizeQuality; fill-rule:evenodd; clip-rule:evenodd" viewBox="0 0 143.61 40.55"> <defs> <style type="text/css"> .fil0 {fill:#EAF5FF} </style> </defs> <g id="Слой_x0020_1"> <metadata id="CorelCorpID_0Corel-Layer"></metadata> <path class="fil0" d="M8.77 0.01l131.84 -0.01c1.65,0 3,1.35 3,2.99l0 34.57c0,1.64 -1.35,2.99 -3,2.99l-137.62 0c-1.64,0 -2.99,-1.35 -2.99,-2.99l0 -28.51c0,-1.64 1.34,-2.99 2.99,-2.99l0 0c0.07,0 -0.06,0.01 0,0 1.47,-0.09 2.65,-1.26 2.78,-2.72 0.01,-0.09 0.01,-0.25 0.01,-0.34l0 0c0,-1.65 1.35,-2.99 2.99,-2.99z"></path> </g> </svg> 