<?xml version="1.0" encoding="UTF-8"?> <svg xmlns="http://www.w3.org/2000/svg" width="56" height="56" viewBox="0 0 56 56" fill="none"><path d="M3 17.7368V8C3.35088 6.33333 4.84211 3 8 3C11.1579 3 15.9825 3 18 3M37.7368 3H48C49.6667 3.17544 53 4.42105 53 8C53 11.5789 53 15.9825 53 17.7368M53 38V47.7368C52.9123 49.4035 51.7895 52.7368 48 52.7368C44.2105 52.7368 39.5789 52.7368 37.7368 52.7368M18 52.7368H8C6.33333 52.4737 3 51.1053 3 47.7368C3 44.3684 3 39.8421 3 38M10.8947 27.4737L23.2632 39.8421L44.5789 18.5263" stroke="#378FFD" stroke-width="5"></path></svg> 